# xmcd
#
# Track frame offsets:
#	150
#	14101
#	25494
#	45316
#	57031
#	69785
#	83928
#	102490
#	117075
#	133289
#	145405
#	161502
#	174201
#
# Disc length: 2544 seconds
#
# Revision: 2
# Processed by: cddbd v1.5.2PL0 Copyright (c) Steve Scherf et al.
# Submitted via: EasyCDDAExtractor 16.0.8.1
#
DISCID=ad09ee0d
DTITLE=Randy Travis - Influence Vol 2: The Man I Am
DYEAR=2014
DGENRE=Country
TTITLE0=I'm Movin' On
TTITLE1=Set 'Em Up Joe
TTITLE2=Are The Good Times Really Over
TTITLE3=You Nearly Lose Your Mind
TTITLE4=There I've Said It Again
TTITLE5=That's The Way Love Goes
TTITLE6=Sunday Morning Coming Down
TTITLE7=Don't Worry 'Bout Me
TTITLE8=Mind Your Own Business
TTITLE9=Only Daddy That'll Walk The Line
TTITLE10=For The Good Times
TTITLE11=California Blues
TTITLE12=Tonight I'm Playin' Possum (Solo Version)
EXTD=
EXTT0=
EXTT1=
EXTT2=
EXTT3=
EXTT4=
EXTT5=
EXTT6=
EXTT7=
EXTT8=
EXTT9=
EXTT10=
EXTT11=
EXTT12=
PLAYORDER=
